<svg xmlns="http://www.w3.org/2000/svg" version="1.1" xmlns:xlink="http://www.w3.org/1999/xlink" xmlns:svgjs="http://svgjs.dev/svgjs" width="1500" height="1205" viewBox="0 0 1500 1205"><g transform="matrix(1,0,0,1,0,0.3984580210021704)"><svg viewBox="0 0 448 360" data-background-color="#ffffff" preserveAspectRatio="xMidYMid meet" height="1205" width="1500" xmlns="http://www.w3.org/2000/svg" xmlns:xlink="http://www.w3.org/1999/xlink"><g id="tight-bounds" transform="matrix(1,0,0,1,0,-0.11904140046539169)"><svg viewBox="0 0 448 360" height="360" width="448"><g><svg></svg></g><g><svg viewBox="0 0 448 360" height="360" width="448"><g><path transform="translate(36.9151,-7.08178) scale(0.00624,0.00624)" d="M25167 8301c221 0 400 179 400 400 0 221-179 400-400 400h-3824l-2753 2753c-156 156-409 156-566 0-156-156-156-409 0-566l2188-2188h-6475c-1847 0-3071 431-3819 1301-760 885-1068 2254-1068 4110 0 11 0 22-1 33l34 5884 2356-2356c156-156 409-156 566 0 156 156 156 409 0 566l-2915 2915c33 5746 31 11443-2 17189 4087 4041 8117 8068 12157 12154h4070c221 0 400 179 400 400 0 221-179 400-400 400h-3279l4160 4208 1-1c1313 1313 2498 2062 3660 2151 1146 87 2316-474 3622-1779l4579-4579h-3323c-221 0-400-179-400-400 0-221 179-400 400-400h4123l2666-2666c156-156 409-156 566 0 156 156 156 409 0 566l-2101 2101h6475c1847 0 3071-431 3819-1301 760-885 1068-2254 1068-4110h2l-34-5917-2568 2568c-156 156-409 156-566 0-156-156-156-409 0-566l3127-3127c-33-5746-31-11443 2-17189-4087-4041-8117-8068-12157-12154h-4193c-221 0-400-179-400-400 0-221 179-400 400-400h3402l-4141-4189c-7-6-13-12-20-18-1313-1313-2498-2062-3660-2151-1146-87-2316 474-3622 1779l-4579 4579h3024zM13737 8301h7275l5144-5144c1483-1483 2856-2116 4247-2010 1374 104 2719 934 4167 2382 8 8 15 15 22 23l4695 4749h6977c2096 0 3515 524 4425 1583 898 1045 1261 2582 1261 4629 0 13-1 25-2 37l-36 6373 4559 4508 1-1c1448 1448 2278 2792 2382 4167 106 1391-528 2764-2010 4247l-4934 4934 38 6710h2c0 2047-364 3584-1261 4629-910 1059-2329 1583-4425 1583h-7275l-5144 5144c-1483 1483-2856 2116-4247 2010-1374-104-2719-934-4167-2382l1-1-4718-4772h-6977c-2096 0-3515-524-4425-1583-898-1045-1261-2582-1261-4629h2l37-6410-4537-4485c-8-7-16-14-23-22-1448-1448-2278-2792-2382-4167-106-1391 528-2764 2010-4247l4934-4934-38-6672c-1-12-2-25-2-37 0-2047 364-3584 1261-4629 910-1059 2329-1583 4425-1583zM8141 30000l-44-7653-4374 4374c-1305 1305-1866 2476-1779 3622 88 1162 838 2348 2151 3660 6 6 13 13 18 20l3983 3937 45-7961zM8882 39860l-32 5627h2c0 1857 308 3226 1068 4110 748 871 1972 1301 3819 1301h6186l-5380-5442-5662-5597zM46264 9101h-6186l5380 5442 5662 5597 32-5594c-1-11-1-22-1-33 0-1857-308-3226-1068-4110-748-871-1972-1301-3819-1301zM51906 22039l-45 7961 44 7653 4374-4374c1305-1305 1866-2476 1779-3622-88-1163-838-2348-2151-3660l1-1-4002-3956z" fill="#ff0000" fill-rule="nonzero" stroke="none" stroke-width="1" stroke-linecap="butt" stroke-linejoin="miter" stroke-miterlimit="10" stroke-dasharray="" stroke-dashoffset="0" font-family="none" font-weight="none" font-size="none" text-anchor="none" style="mix-blend-mode: normal" data-fill-palette-color="tertiary"></path></g><g transform="matrix(1,0,0,1,112,120.26411283440075)"><svg viewBox="0 0 224 119.47177433119852" height="119.47177433119852" width="224"><g><svg viewBox="0 0 224 119.47177433119852" height="119.47177433119852" width="224"><g><svg viewBox="0 0 224.00000000000003 119.47177433119853" height="119.47177433119852" width="224"><g transform="matrix(1,0,0,1,0,73.83834950655688)"><svg viewBox="0 0 224.00000000000003 45.63342482464166" height="45.63342482464166" width="224.00000000000003"><g id="textblocktransform"><svg viewBox="0 0 224.00000000000003 45.63342482464166" height="45.63342482464166" width="224.00000000000003" id="textblock"><g><svg viewBox="0 0 224.00000000000003 45.63342482464166" height="45.63342482464166" width="224.00000000000003"><g transform="matrix(1,0,0,1,0,0)"><svg width="224.00000000000003" viewBox="1.9 -32.25 163.94 33.4" height="45.63342482464166" data-palette-color="#ff0000"><path d="M19.25 0.9Q15.9-9.2 10.5-24.45L10.5-24.45 10.15-24.45Q10.15-23.9 9.5-16.1L9.5-16.1Q8.65-4.85 8.65-4.2L8.65-4.2Q8.65-2.65 10.25-2.65L10.25-2.65 12.15-2.7 12.3-2.45 11.8 0.2 10.5 0.15Q6.9 0 6.5 0L6.5 0Q5.35 0 3.85 0.18 2.35 0.35 1.9 0.4L1.9 0.4 2.2-2.35Q3.7-2.5 4.38-3.3 5.05-4.1 5.3-6.1L5.3-6.1Q5.8-10.4 6.6-18.25 7.4-26.1 7.4-27L7.4-27Q7.4-28.35 6.5-28.93 5.6-29.5 3.35-29.65L3.35-29.65 3.15-29.95 3.55-32.2Q7.3-31.95 9.35-31.95L9.35-31.95Q9.7-31.95 12.55-32.1L12.55-32.1 13.65-32.15Q16.4-22.95 20.5-10.95L20.5-10.95 21.15-9.1 21.45-9.1Q22.05-10.85 22.4-11.85L22.4-11.85Q26.2-22.65 29.25-32.05L29.25-32.05Q29.85-32.05 30.3-32L30.3-32Q32.55-31.9 33.7-31.95L33.7-31.95Q34.8-31.95 36.75-32.1 38.7-32.25 39-32.25L39-32.25 39.15-32.05 38.85-29.7Q36.7-29.45 35.85-28.85 35-28.25 35-27L35-27Q35-25.65 35.45-18.93 35.9-12.2 36.3-7.3L36.3-7.3Q36.5-5.35 36.75-4.38 37-3.4 37.45-3.03 37.9-2.65 38.7-2.65L38.7-2.65Q39.15-2.65 39.6-2.7 40.05-2.75 40.1-2.75L40.1-2.75 40.25-2.5 39.8 0.15Q39.55 0.15 37.88 0.08 36.2 0 34.95 0L34.95 0Q33.15 0 31.05 0.2 28.95 0.4 28.85 0.4L28.85 0.4 29.15-2.35Q30.65-2.55 31.33-3.13 32-3.7 32-4.85L32-4.85Q32-5.45 31.7-9.65 31.4-13.85 31.2-16.5L31.2-16.5Q30.6-24.1 30.6-24.45L30.6-24.45 30.25-24.45Q24.75-9.2 21.45 0.5L21.45 0.5 19.25 0.9ZM56.45 0.3L56.3 0.05 56.45-2.1Q58.55-2.3 59.17-2.55 59.8-2.8 59.8-3.55L59.8-3.55Q59.8-4.2 59.5-5L59.5-5 58.55-8.25Q57.5-8.3 54.6-8.3L54.6-8.3Q53.05-8.3 50.55-8.05L50.55-8.05 49.35-4.85Q49.1-3.85 49.1-3.6L49.1-3.6Q49.1-2.85 49.57-2.55 50.05-2.25 51.2-2.25L51.2-2.25 53.05-2.25 53.25-2 52.95 0.25Q52.4 0.2 50.55 0.1 48.7 0 47.05 0L47.05 0Q45.4 0 44.05 0.05 42.7 0.1 42.25 0.1L42.25 0.1 42.55-2.3Q43.55-2.45 44.17-3.03 44.8-3.6 45.35-5L45.35-5 52.9-24.75 58.2-25.4 58.65-25.25Q59.25-23.05 61.2-16.23 63.15-9.4 64.7-5L64.7-5Q65.15-3.55 65.87-2.98 66.6-2.4 68.15-2.25L68.15-2.25 68.3-2 68 0.1Q67.5 0.1 66.07 0.05 64.65 0 63.15 0L63.15 0Q61.05 0 59.02 0.13 57 0.25 56.45 0.3L56.45 0.3ZM51.45-11.05L54.55-11.05Q56.5-11.05 57.85-11.2L57.85-11.2 55.2-20.2 54.7-20.2 51.45-11.05ZM90.09 0.6Q87.55 0.6 85.65-3L85.65-3 81.84-10 78.84-10 78.75-5.35Q78.75-3.95 78.95-3.35 79.15-2.75 79.72-2.55 80.3-2.35 81.7-2.3L81.7-2.3 81.84-2.1 81.4 0.15Q80.7 0.1 78.95 0.08 77.2 0.05 75.65 0.05L75.65 0.05Q74.2 0.05 72.72 0.13 71.25 0.2 70.8 0.25L70.8 0.25 71.15-2.2Q72.9-2.45 73.5-3.05 74.09-3.65 74.09-5.35L74.09-5.35 74.15-20.7Q74.15-21.85 73.84-22.25 73.55-22.65 72.8-22.65L72.8-22.65 71.34-22.6 71.15-22.85 71.5-25.05Q72.05-25.05 73.55-25 75.05-24.95 76.5-24.95L76.5-24.95Q78.09-24.95 79.87-25.03 81.65-25.1 82.34-25.15L82.34-25.15Q86.8-25.15 89.25-23.43 91.7-21.7 91.7-18.6L91.7-18.6Q91.7-16.3 90.22-14.38 88.75-12.45 86-11.15L86-11.15 89.84-5.35Q91.05-3.55 92.12-2.78 93.2-2 94.59-2L94.59-2 94.84-1.65 94.55 0.2 90.09 0.6ZM82.75-12.8Q86.55-14.25 86.55-17.85L86.55-17.85Q86.55-20.1 84.95-21.2 83.34-22.3 80-22.3L80-22.3Q79.59-22.3 79.45-22.13 79.3-21.95 79.3-21.4L79.3-21.4Q78.95-15.65 78.95-13.2L78.95-13.2 82.75-12.8ZM103.84 0.6Q103.24-1.55 101.22-8.43 99.19-15.3 97.49-20.3L97.49-20.3Q97.09-21.45 96.34-22.03 95.59-22.6 94.24-22.65L94.24-22.65 94.09-22.85 94.39-25.05Q94.94-25.05 96.44-25 97.94-24.95 99.44-24.95L99.44-24.95Q101.14-24.95 103.32-25.1 105.49-25.25 106.14-25.3L106.14-25.3 106.34-25 106.19-22.85Q104.69-22.7 104.02-22.58 103.34-22.45 103.09-22.18 102.84-21.9 102.84-21.35L102.84-21.35Q102.84-20.5 104.62-13.85 106.39-7.2 107.04-4.8L107.04-4.8 107.59-4.8Q108.79-7.65 111.04-14.1 113.29-20.55 113.29-21.4L113.29-21.4Q113.29-22.1 112.77-22.4 112.24-22.7 110.94-22.7L110.94-22.7 109.19-22.7 109.04-22.95 109.29-25.2Q109.84-25.15 111.74-25.05 113.64-24.95 115.29-24.95L115.29-24.95Q116.94-24.95 118.27-25 119.59-25.05 120.04-25.05L120.04-25.05 119.69-22.65Q118.64-22.55 118.19-22.18 117.74-21.8 117.29-20.65L117.29-20.65 109.39-0.2 103.84 0.6ZM122.64 0.4L122.94-2Q124.79-2.35 125.39-3 125.99-3.65 125.99-5.3L125.99-5.3 126.04-20.55Q126.04-21.8 125.74-22.23 125.44-22.65 124.54-22.65L124.54-22.65 123.04-22.6 122.89-22.9 123.14-25.05Q124.04-25.05 124.79-25L124.79-25 128.59-24.95Q129.74-24.95 131.62-25.08 133.49-25.2 134.09-25.25L134.09-25.25 133.89-22.85Q132.29-22.65 131.77-22.25 131.24-21.85 131.14-20.7L131.14-20.7Q130.64-10.9 130.64-5L130.64-5Q130.64-3.4 130.97-2.85 131.29-2.3 132.29-2.3L132.29-2.3Q132.99-2.3 133.52-2.35 134.04-2.4 134.19-2.45L134.19-2.45 134.34-2.2 133.99 0.1Q133.34 0.1 131.57 0.05 129.79 0 128.09 0L128.09 0Q126.69 0 124.94 0.18 123.19 0.35 122.64 0.4L122.64 0.4ZM159.04-8.35L158.94-20.95Q158.94-21.85 158.61-22.23 158.29-22.6 157.59-22.6L157.59-22.6 156.14-22.6 156.04-22.85 156.34-25.1Q156.89-25.05 158.31-25 159.74-24.95 161.19-24.95L161.19-24.95Q162.39-24.95 163.89-25.05 165.39-25.15 165.84-25.2L165.84-25.2 165.64-22.8Q164.19-22.6 163.59-22.05 162.99-21.5 162.94-20.3L162.94-20.3 162.39 0.65 159.04 1.15Q154.74-5.2 150.36-11.2 145.99-17.2 145.99-17.1L145.99-17.1 145.64-17.1 145.59-4.05Q145.59-3.05 145.89-2.68 146.19-2.3 146.94-2.3L146.94-2.3 148.79-2.35 149.04-2.2 148.59 0.15Q148.04 0.1 146.59 0.05 145.14 0 143.59 0L143.59 0Q142.34 0 140.86 0.13 139.39 0.25 138.94 0.3L138.94 0.3 139.24-2.1Q140.49-2.25 141.06-2.8 141.64-3.35 141.69-4.55L141.69-4.55 142.24-20.35Q142.24-21.6 141.54-22.08 140.84-22.55 138.84-22.8L138.84-22.8 138.54-23.1 138.89-25.15Q139.34-25.1 140.74-25.03 142.14-24.95 143.24-24.95L143.24-24.95Q144.49-24.95 145.49-25 146.49-25.05 146.84-25.1L146.84-25.1Q150.44-19.65 154.04-14.7 157.64-9.75 158.69-8.35L158.69-8.35 159.04-8.35Z" opacity="1" transform="matrix(1,0,0,1,0,0)" fill="#ff0000" class="wordmark-text-0" data-fill-palette-color="primary" id="text-0"></path></svg></g></svg></g></svg></g></svg></g><g transform="matrix(1,0,0,1,80.28239758768211,0)"><svg viewBox="0 0 63.435204824635804 63.06539310765478" height="63.06539310765478" width="63.435204824635804"><g><svg xmlns="http://www.w3.org/2000/svg" viewBox="20 20.173631984616488 60.018743579525974 59.668848995350714" x="0" y="0" height="63.06539310765478" width="63.435204824635804" class="icon-icon-0" data-fill-palette-color="accent" id="icon-0"><g data-name="Calque 2" fill="#ff0000" data-fill-palette-color="accent"><path d="M23.82 23.07A1.82 1.82 0 1 1 22 24.88 1.82 1.82 0 0 1 23.82 23.07Zm0 5.58a3.73 3.73 0 0 0 2-0.56c2.07 1.44 9.08 6.45 10.21 7.14a6.25 6.25 0 0 0 3.19 1.25c0.63 0 2 0.06 4.13 0.06A2.75 2.75 0 0 0 45.8 38a2.76 2.76 0 1 0-2.69-3.32c-1.94 0-3.26 0-3.82-0.06A3.81 3.81 0 0 1 37 33.71c-1-0.63-7.64-5.39-9.9-7A4 4 0 0 0 27.57 25a3.7 3.7 0 0 0-3.7-3.7 3.74 3.74 0 0 0-3.7 3.7A3.6 3.6 0 0 0 23.82 28.64Z" fill="#ff0000" data-fill-palette-color="accent"></path><path d="M22.13 44.61a1.82 1.82 0 1 1 1.82 1.82A1.78 1.78 0 0 1 22.13 44.61Zm5.39 0.94H33a2.71 2.71 0 0 0 2.57 1.82 2.76 2.76 0 0 0 0-5.51A2.71 2.71 0 0 0 33 43.67H27.52a3.76 3.76 0 0 0-3.57-2.76 3.7 3.7 0 0 0-3.7 3.7 3.74 3.74 0 0 0 3.7 3.7A3.52 3.52 0 0 0 27.52 45.55Z" fill="#ff0000" data-fill-palette-color="accent"></path><path d="M28.33 49.87a1.82 1.82 0 1 1-1.82 1.82A1.82 1.82 0 0 1 28.33 49.87Zm0 5.58a3.7 3.7 0 0 0 3.57-2.76H33a2.72 2.72 0 0 0 2.57 1.82 2.76 2.76 0 0 0 0-5.51A2.71 2.71 0 0 0 33 50.81H31.9a3.76 3.76 0 0 0-3.57-2.76 3.7 3.7 0 0 0 0 7.39Z" fill="#ff0000" data-fill-palette-color="accent"></path><path d="M23.7 75.24a1.82 1.82 0 1 1 1.82-1.82A1.78 1.78 0 0 1 23.7 75.24Zm1.06-5.39V63.4c0-2.94 1-3.57 2.69-3.57 2.07 0 4.38 0 5.39 0.06a2.73 2.73 0 0 0 2.63 1.82 2.76 2.76 0 1 0 0-5.51A2.71 2.71 0 0 0 32.9 58c-1.06 0-3.38-0.06-5.39-0.06-4.64 0-4.64 4.07-4.64 5.45v6.39A3.76 3.76 0 0 0 20 73.42a3.7 3.7 0 0 0 3.7 3.7 3.74 3.74 0 0 0 3.7-3.7A3.58 3.58 0 0 0 24.76 69.86Z" fill="#ff0000" data-fill-palette-color="accent"></path><path d="M75.06 75.24a1.82 1.82 0 1 1 1.82-1.82A1.82 1.82 0 0 1 75.06 75.24Zm0.81-5.45V63.4c0-1.31 0-5.45-4.57-5.45-2.07 0-4.38 0-5.39 0.06a2.71 2.71 0 0 0-2.57-1.82 2.76 2.76 0 1 0 0 5.51A2.85 2.85 0 0 0 66 59.9c1.06 0 3.38-0.06 5.39-0.06C73 59.83 74 60.4 74 63.4v6.45a3.7 3.7 0 0 0 1 7.26 3.71 3.71 0 0 0 0.82-7.33Z" fill="#ff0000" data-fill-palette-color="accent"></path><path d="M72.42 23.69A1.57 1.57 0 1 1 74 25.26 1.59 1.59 0 0 1 72.42 23.69ZM63.59 47.37A2.76 2.76 0 0 0 66 45.86h4.57c4.26 0 4.26-3.76 4.26-5V27a3.46 3.46 0 1 0-4.26-3.38A3.44 3.44 0 0 0 73.05 27v13.9c0 2.63-0.82 3.13-2.38 3.13H66.35a2.75 2.75 0 0 0-5.45 0.56A2.63 2.63 0 0 0 63.59 47.37Z" fill="#ff0000" data-fill-palette-color="accent"></path><path d="M76.37 50.13a1.82 1.82 0 1 1-1.82 1.82A1.78 1.78 0 0 1 76.37 50.13Zm-13 4.57A2.71 2.71 0 0 0 66 52.88h6.77a3.76 3.76 0 0 0 3.57 2.76A3.7 3.7 0 1 0 72.74 51H66a2.71 2.71 0 0 0-2.57-1.82 2.78 2.78 0 0 0-2.76 2.76A2.73 2.73 0 0 0 63.4 54.7Z" fill="#ff0000" data-fill-palette-color="accent"></path><rect x="40.48" y="39.98" width="18.04" height="23.93" rx="3.95" ry="3.95" fill="#ff0000" data-fill-palette-color="accent"></rect><path d="M40.48 24.45a1.82 1.82 0 1 1-1.82 1.82A1.86 1.86 0 0 1 40.48 24.45Zm0 5.58A3.7 3.7 0 0 0 44 27.33h6.26c0.69 0 1.31 0 1.57 0.25s0.31 0.44 0.31 1.25c0 1.13 0 2.63-0.06 3.82a2.76 2.76 0 1 0 3.76 2.57 2.76 2.76 0 0 0-1.94-2.63c0-1.19 0.06-2.63 0.06-3.76a3.32 3.32 0 0 0-0.82-2.57 3.69 3.69 0 0 0-2.88-0.75h-6.2A3.71 3.71 0 1 0 40.48 30Z" fill="#ff0000" data-fill-palette-color="accent"></path><path d="M35 76.18a1.82 1.82 0 1 1-1.82-1.82A1.78 1.78 0 0 1 35 76.18ZM45.8 66A2.71 2.71 0 0 0 43.3 67.6h-7c-1.31 0-4.07 0-4.07 3.7v1.25a3.68 3.68 0 0 0 0.88 7.27 3.74 3.74 0 0 0 3.7-3.7 3.7 3.7 0 0 0-2.69-3.57c0-0.37-0.06-0.82-0.06-1.25 0-1.69 0.56-1.82 2.19-1.82h6.83a2.69 2.69 0 0 0 2.63 2 2.78 2.78 0 0 0 2.76-2.76A2.69 2.69 0 0 0 45.8 66Z" fill="#ff0000" data-fill-palette-color="accent"></path><path d="M62.71 78a1.82 1.82 0 0 1-1.82-1.82 1.87 1.87 0 0 1 1.82-1.88 1.82 1.82 0 0 1 1.82 1.82A1.87 1.87 0 0 1 62.71 78Zm0.88-5.45V71.29c0-3.7-2.76-3.7-4.07-3.7H55.7A2.67 2.67 0 0 0 53.2 66a2.76 2.76 0 1 0 2.63 3.51h3.7c1.63 0 2.19 0.12 2.19 1.82a8.09 8.09 0 0 1-0.06 1.25 3.7 3.7 0 1 0 4.7 3.57A3.57 3.57 0 0 0 63.59 72.55Z" fill="#ff0000" data-fill-palette-color="accent"></path></g></svg></g></svg></g><g></g></svg></g></svg></g></svg></g></svg></g><defs></defs></svg><rect width="448" height="360" fill="none" stroke="none" visibility="hidden"></rect></g></svg></g></svg>